<svg width="100%" height="100%" viewBox="0 0 1600 900"
     xmlns="http://www.w3.org/2000/svg">

  <g stroke="#0FB5A655" stroke-width="1">
    <line x1="0" y1="200" x2="1600" y2="200"/>
    <line x1="0" y1="400" x2="1600" y2="400"/>
    <line x1="0" y1="600" x2="1600" y2="600"/>
    <line x1="400" y1="0" x2="400" y2="900"/>
    <line x1="800" y1="0" x2="800" y2="900"/>
    <line x1="1200" y1="0" x2="1200" y2="900"/>
  </g>

  <path d="M0 700 Q800 100 1600 700"
        stroke="#0FB5A660" stroke-width="2" fill="none" />

  <path d="M0 500 
           C200 450 400 550 600 500
           C800 450 1000 550 1200 500
           C1400 450 1600 550 1800 500"
        stroke="#0FB5A660" stroke-width="2" fill="none" />

  <polygon points="200,750 400,750 200,550"
           stroke="#0FB5A660" stroke-width="3" fill="none"/>

  <text x="420" y="650" fill="#0FB5A660"
        font-size="42" font-family="Segoe UI">a² + b² = c²</text>

  <rect x="1300" y="200" width="150" height="200"
        rx="18" stroke="#0FB5A660" stroke-width="3" fill="none"/>
</svg>
